<svg xmlns="http://www.w3.org/2000/svg" viewBox="0 0 288 217.29"><defs><style>.cls-1{fill:#1c1d20;}</style></defs><g id="Слой_2" data-name="Слой 2"><g id="SvgjsSvg1001"><g id="SvgjsG1008"><path class="cls-1" d="M184.83,106.88l2.93-3.68L268.11,139l-35.55-20.05C288.17,84.26,259.52,0,188.17,0H83.69V55.68H30.6l202,90.83-11.77-22.92ZM134.28,88.24V42.91c40.81,0,75.86-3.54,75.86,22.68-.1,28.78-32.89,22.65-76,22.65Z"/><polygon class="cls-1" points="0 83.75 55.71 112.37 55.71 118.91 134.21 156.76 134.18 129.09 139.33 129.09 83.65 101.18 83.65 115.84 103.74 126.42 103.84 130.91 2.9 80.92 0 83.75"/><polygon class="cls-1" points="83.48 139 83.48 217.25 134.28 217.25 134.21 161.91 83.48 139"/><polygon class="cls-1" points="159.45 179.47 209.71 204.72 217.56 217.29 242.8 217.29 161.95 176.95 159.45 179.47"/><polygon class="cls-1" points="202.43 189.35 250.39 217.29 270.85 217.29 270.85 210.01 260.6 194.57 260.73 189.65 288 199.43 179.68 146.51 202.43 189.35"/></g></g></g></svg>