<svg id="SvgjsSvg1001" width="288" height="288" xmlns="http://www.w3.org/2000/svg" version="1.1" xmlns:xlink="http://www.w3.org/1999/xlink" xmlns:svgjs="http://svgjs.com/svgjs"><defs id="SvgjsDefs1002"></defs><g id="SvgjsG1008"><svg xmlns="http://www.w3.org/2000/svg" viewBox="0 0 85.45 64.47" width="288" height="288"><g data-name="Слой 2" fill="#334bd3" class="color000 svgShape"><g data-name="Слой 7" fill="#334bd3" class="color000 svgShape"><path fill="#334bd3" d="M54.84,31.71l.87-1.09L79.55,41.23,69,35.28C85.5,25,77,0,55.83,0h-31V16.52l-15.75,0L69,43.47l-3.49-6.8Zm-15-5.53V12.73c12.11,0,22.51-1.05,22.51,6.73C62.32,28,52.59,26.18,39.81,26.18Z" class="color1d1d1b svgShape"></path><polygon fill="#334bd3" points="0 24.85 16.53 33.34 16.53 35.28 39.82 46.51 39.81 38.3 41.34 38.3 24.82 30.02 24.82 34.37 30.78 37.51 30.81 38.84 .86 24.01 0 24.85" class="color1d1d1b svgShape"></polygon><polygon fill="#334bd3" points="24.77 41.24 24.77 64.46 39.84 64.46 39.82 48.04 24.77 41.24" class="color1d1d1b svgShape"></polygon><polygon fill="#334bd3" points="47.31 53.25 62.22 60.74 64.55 64.47 72.04 64.47 48.05 52.5 47.31 53.25" class="color1d1d1b svgShape"></polygon><polygon fill="#334bd3" points="60.06 56.18 74.29 64.47 80.36 64.47 80.36 62.31 77.32 57.73 77.36 56.27 85.45 59.17 53.31 43.47 60.06 56.18" class="color1d1d1b svgShape"></polygon></g></g></svg></g></svg>